<?xml version="1.0" encoding="utf-8"?>
<svg width="24px" height="24px" viewBox="0 0 24 24" version="1.1" xmlns:xlink="http://www.w3.org/1999/xlink" xmlns="http://www.w3.org/2000/svg">
  <defs>
    <rect width="24" height="24" id="artboard_1" />
    <clipPath id="clip_1">
      <use xlink:href="#artboard_1" clip-rule="evenodd" />
    </clipPath>
  </defs>
  <g id="add" clip-path="url(#clip_1)">
    <path d="M4.999 11L19.001 11Q19.0994 11 19.1959 11.0192Q19.2924 11.0384 19.3833 11.076Q19.4742 11.1137 19.556 11.1684Q19.6378 11.223 19.7074 11.2926Q19.777 11.3622 19.8316 11.444Q19.8863 11.5258 19.924 11.6167Q19.9616 11.7076 19.9808 11.8041Q20 11.9006 20 11.999L20 12.001Q20 12.0994 19.9808 12.1959Q19.9616 12.2924 19.924 12.3833Q19.8863 12.4742 19.8316 12.556Q19.777 12.6378 19.7074 12.7074Q19.6378 12.777 19.556 12.8316Q19.4742 12.8863 19.3833 12.924Q19.2924 12.9616 19.1959 12.9808Q19.0994 13 19.001 13L4.999 13Q4.90061 13 4.8041 12.9808Q4.7076 12.9616 4.6167 12.924Q4.5258 12.8863 4.44398 12.8316Q4.36217 12.777 4.2926 12.7074Q4.22303 12.6378 4.16836 12.556Q4.1137 12.4742 4.07604 12.3833Q4.03839 12.2924 4.0192 12.1959Q4 12.0994 4 12.001L4 11.999Q4 11.9006 4.0192 11.8041Q4.03839 11.7076 4.07604 11.6167Q4.1137 11.5258 4.16836 11.444Q4.22303 11.3622 4.2926 11.2926Q4.36217 11.223 4.44398 11.1684Q4.5258 11.1137 4.6167 11.076Q4.7076 11.0384 4.8041 11.0192Q4.90061 11 4.999 11Z" id="矩形-2" fill="#FFFFFF" fill-rule="evenodd" stroke="none" artboard="3938c27d-1a7f-46ba-bab3-0226cb59d989" />
    <path d="M13 4.999L13 19.001Q13 19.0994 12.9808 19.1959Q12.9616 19.2924 12.924 19.3833Q12.8863 19.4742 12.8316 19.556Q12.777 19.6378 12.7074 19.7074Q12.6378 19.777 12.556 19.8316Q12.4742 19.8863 12.3833 19.924Q12.2924 19.9616 12.1959 19.9808Q12.0994 20 12.001 20L11.999 20Q11.9006 20 11.8041 19.9808Q11.7076 19.9616 11.6167 19.924Q11.5258 19.8863 11.444 19.8316Q11.3622 19.777 11.2926 19.7074Q11.223 19.6378 11.1684 19.556Q11.1137 19.4742 11.0761 19.3833Q11.0384 19.2924 11.0192 19.1959Q11 19.0994 11 19.001L11 4.999Q11 4.90061 11.0192 4.80411Q11.0384 4.7076 11.076 4.6167Q11.1137 4.5258 11.1684 4.44399Q11.223 4.36218 11.2926 4.2926Q11.3622 4.22303 11.444 4.16836Q11.5258 4.1137 11.6167 4.07605Q11.7076 4.03839 11.8041 4.0192Q11.9006 4 11.999 4L12.001 4Q12.0994 4 12.1959 4.0192Q12.2924 4.03839 12.3833 4.07604Q12.4742 4.1137 12.556 4.16836Q12.6378 4.22303 12.7074 4.2926Q12.777 4.36217 12.8316 4.44398Q12.8863 4.5258 12.9239 4.6167Q12.9616 4.7076 12.9808 4.8041Q13 4.90061 13 4.999Z" id="矩形-3" fill="#FFFFFF" fill-rule="evenodd" stroke="none" artboard="46716e14-160c-4372-8e76-326aa3d23e15" />
  </g>
</svg>