<?xml version="1.0" encoding="utf-8"?>
<svg width="24px" height="24px" viewBox="0 0 24 24" version="1.1" xmlns:xlink="http://www.w3.org/1999/xlink" xmlns="http://www.w3.org/2000/svg">
  <defs>
    <rect width="24" height="24" id="artboard_1" />
    <clipPath id="clip_1">
      <use xlink:href="#artboard_1" clip-rule="evenodd" />
    </clipPath>
  </defs>
  <g id="close" clip-path="url(#clip_1)">
    <path d="M7.75664 6.34245L17.6576 16.2433Q17.7271 16.3129 17.7818 16.3947Q17.8365 16.4765 17.8741 16.5674Q17.9118 16.6583 17.931 16.7548Q17.9502 16.8513 17.9502 16.9497Q17.9502 17.0481 17.931 17.1446Q17.9118 17.2411 17.8741 17.332Q17.8365 17.4229 17.7818 17.5047Q17.7271 17.5866 17.6576 17.6561L17.6562 17.6576Q17.5866 17.7271 17.5048 17.7818Q17.423 17.8365 17.3321 17.8741Q17.2412 17.9118 17.1447 17.931Q17.0482 17.9502 16.9498 17.9502Q16.8514 17.9502 16.7549 17.931Q16.6584 17.9118 16.5675 17.8741Q16.4766 17.8365 16.3947 17.7818Q16.3129 17.7271 16.2434 17.6576L6.34243 7.75666Q6.27286 7.68709 6.21819 7.60528Q6.16353 7.52347 6.12587 7.43256Q6.08822 7.34166 6.06903 7.24516Q6.04983 7.14866 6.04983 7.05026Q6.04983 6.95187 6.06902 6.85537Q6.08822 6.75887 6.12587 6.66796Q6.16353 6.57706 6.21819 6.49525Q6.27285 6.41344 6.34243 6.34386L6.34384 6.34245Q6.41342 6.27288 6.49523 6.21821Q6.57704 6.16355 6.66794 6.12589Q6.75884 6.08824 6.85535 6.06904Q6.95185 6.04985 7.05024 6.04985Q7.14863 6.04985 7.24514 6.06904Q7.34164 6.08824 7.43254 6.12589Q7.52345 6.16354 7.60526 6.21821Q7.68707 6.27287 7.75664 6.34245Z" id="矩形-2" fill="#FFFFFF" fill-opacity="0.7490196" fill-rule="evenodd" stroke="none" artboard="a55bf4cb-de1c-4c3c-8bd8-9cada29f7638" />
    <path d="M17.6576 7.75664L7.75666 17.6576Q7.68709 17.7271 7.60528 17.7818Q7.52347 17.8365 7.43256 17.8741Q7.34166 17.9118 7.24516 17.931Q7.14865 17.9502 7.05026 17.9502Q6.95187 17.9502 6.85537 17.931Q6.75886 17.9118 6.66796 17.8741Q6.57706 17.8365 6.49525 17.7818Q6.41344 17.7271 6.34386 17.6576L6.34245 17.6562Q6.27287 17.5866 6.21821 17.5048Q6.16354 17.423 6.12589 17.3321Q6.08824 17.2412 6.06904 17.1447Q6.04985 17.0481 6.04985 16.9498Q6.04985 16.8514 6.06904 16.7549Q6.08824 16.6584 6.12589 16.5675Q6.16354 16.4766 6.21821 16.3947Q6.27287 16.3129 6.34245 16.2434L16.2433 6.34243Q16.3129 6.27286 16.3947 6.21819Q16.4765 6.16353 16.5674 6.12587Q16.6583 6.08822 16.7548 6.06903Q16.8513 6.04983 16.9497 6.04983Q17.0481 6.04983 17.1446 6.06902Q17.2411 6.08822 17.332 6.12587Q17.4229 6.16353 17.5047 6.21819Q17.5866 6.27285 17.6561 6.34243L17.6575 6.34384Q17.7271 6.41342 17.7818 6.49523Q17.8364 6.57704 17.8741 6.66794Q17.9118 6.75884 17.931 6.85535Q17.9502 6.95185 17.9502 7.05024Q17.9502 7.14863 17.931 7.24514Q17.9118 7.34164 17.8741 7.43254Q17.8365 7.52344 17.7818 7.60526Q17.7271 7.68707 17.6576 7.75664Z" id="矩形-3" fill="#FFFFFF" fill-opacity="0.7490196" fill-rule="evenodd" stroke="none" artboard="686a6ba7-eb19-4e89-9535-7e5681c2a36d" />
  </g>
</svg>