<?xml version="1.0" encoding="utf-8"?>
<svg width="24px" height="24px" viewBox="0 0 24 24" version="1.1" xmlns:xlink="http://www.w3.org/1999/xlink" xmlns="http://www.w3.org/2000/svg">
  <defs>
    <rect width="24" height="24" id="artboard_1" />
    <clipPath id="clip_1">
      <use xlink:href="#artboard_1" clip-rule="evenodd" />
    </clipPath>
  </defs>
  <g id="connect" clip-path="url(#clip_1)">
    <path d="M10.0839 8.92087C10.806 9.64292 14.3302 13.1671 15.0337 13.8706C15.7371 14.5741 15.7503 14.5682 16.0943 14.2242C16.4384 13.8801 16.463 13.8555 16.8014 13.5171C17.1398 13.1786 17.1398 13.1533 16.8014 12.8099C16.4631 12.4666 16.463 12.4413 16.8014 12.1028C17.1398 11.7644 17.9817 10.92 18.5692 10.3351C19.2668 9.63745 19.2754 9.62434 18.9253 9.27183C18.5752 8.91933 18.9376 9.28195 18.2182 8.56473C17.5111 7.86646 17.6875 7.6781 18.2156 7.15309C18.5074 6.8631 18.5568 6.80976 18.9227 6.44599C19.6325 5.73621 19.6381 5.74709 18.9227 5.03177C18.2074 4.31645 18.2112 4.32906 17.5085 5.03177C17.1548 5.38549 17.0875 5.45279 16.8014 5.73888C16.2764 6.26387 16.0954 6.4283 15.3898 5.7363C14.6842 5.0443 14.9594 5.2872 14.6827 5.0292C14.3433 4.68979 14.3058 4.69902 13.6194 5.38533C12.9331 6.07165 12.2127 6.79205 11.8517 7.1531C11.4906 7.51414 11.4888 7.49736 11.1446 7.1531C10.8003 6.80884 10.7985 6.79206 10.4375 7.1531C10.0764 7.51414 10.0688 7.52179 9.73036 7.86021C9.39194 8.19862 9.36185 8.19881 10.0839 8.92087Z" id="矢量图" fill="#0088FF" fill-rule="evenodd" stroke="none" artboard="57676d16-5c0a-40ff-af06-7c51c4f41e66" />
    <path d="M13.9161 15.0791C13.194 14.3571 9.66982 10.8329 8.96636 10.1294C8.26289 9.42591 8.24977 9.43176 7.9057 9.77582C7.56163 10.1199 7.537 10.1445 7.19859 10.4829C6.86018 10.8213 6.86024 10.8467 7.19859 11.19C7.53693 11.5334 7.537 11.5587 7.19859 11.8971C6.86017 12.2356 6.01834 13.0799 5.43082 13.6649C4.73319 14.3625 4.72457 14.3756 5.07468 14.7281C5.42479 15.0806 5.06239 14.718 5.78179 15.4353C6.48889 16.1335 6.31249 16.3219 5.78437 16.8469C5.49265 17.1369 5.44319 17.1902 5.07726 17.554C4.36748 18.2638 4.36195 18.2529 5.07727 18.9682C5.79258 19.6835 5.78877 19.6709 6.49148 18.9682C6.84519 18.6145 6.9125 18.5472 7.19859 18.2611C7.72358 17.7361 7.90464 17.5717 8.61021 18.2637C9.31578 18.9557 9.04061 18.7128 9.31732 18.9708C9.65673 19.3102 9.69425 19.301 10.3806 18.6147C11.0669 17.9283 11.7873 17.2079 12.1483 16.8469C12.5094 16.4859 12.5112 16.5026 12.8554 16.8469C13.1997 17.1912 13.2015 17.2079 13.5625 16.8469C13.9236 16.4859 13.9312 16.4782 14.2697 16.1398C14.6081 15.8014 14.6382 15.8012 13.9161 15.0791Z" id="矢量图-2" fill="#0088FF" fill-rule="evenodd" stroke="none" artboard="64be40a9-81c6-419d-a9d5-fc34938fe73f" />
  </g>
</svg>