<?xml version="1.0" encoding="utf-8"?>
<svg width="11.489273px" height="12.002842px" viewBox="0 0 11.489273 12.002842" version="1.1" xmlns:xlink="http://www.w3.org/1999/xlink" xmlns="http://www.w3.org/2000/svg">
  <defs>
    <path d="M0.40001 0.336C0.741089 0.00600583 1.36431 0 1.36431 0L4.90069 0C4.90069 0 5.56157 0.0603861 6.06401 0.288C6.56646 0.515614 6.91048 0.910456 6.91048 0.910456L10.8863 4.88623C10.8863 4.88623 11.458 5.40913 11.488 5.936C11.518 6.46287 11.0064 6.99369 11.0064 6.99369L6.86207 11.138C6.86207 11.138 6.45042 11.6085 5.92003 11.824C5.38965 12.0395 4.74052 12 4.74052 12L1.30007 12C1.30007 12 0.661017 11.974 0.336 11.616C0.0109829 11.258 1.07002e-07 10.568 1.07002e-07 10.568L1.07002e-07 1.31997C1.07002e-07 1.31997 0.0589328 0.665993 0.40001 0.336Z" id="path_1" />
    <clipPath id="clip_1">
      <use xlink:href="#path_1" />
    </clipPath>
  </defs>
  <g id="slot-process">
    <use stroke="none" fill="#FFFFFF" xlink:href="#path_1" fill-rule="evenodd" />
    <g clip-path="url(#clip_1)">
      <use xlink:href="#path_1" fill="none" stroke="#000000" stroke-width="2" />
    </g>
  </g>
</svg>